<?xml version="1.0" standalone="no"?><!DOCTYPE svg PUBLIC "-//W3C//DTD SVG 1.1//EN" "http://www.w3.org/Graphics/SVG/1.1/DTD/svg11.dtd"><svg t="1719731803990" class="icon" viewBox="0 0 1238 1024" version="1.1" xmlns="http://www.w3.org/2000/svg" p-id="1552" xmlns:xlink="http://www.w3.org/1999/xlink" width="241.796875" height="200"><path d="M985.431515 444.433099v334.349276l-359.180383 221.14694-384.718614-230.767672V434.956678" fill="#F0F0FF" p-id="1553"></path><path d="M961.379687 444.433099v334.344465c0-8.350795 4.329329-16.109915 11.44386-20.482537l-359.175573 221.146941a24.056639 24.056639 0 0 1 24.985039-0.139501l-384.718614-230.777293a24.056639 24.056639 0 0 1 11.679568 20.631659V434.956678a24.051828 24.051828 0 0 0-48.103657 0v334.204965c0 8.456623 4.435157 16.283088 11.679568 20.631659l384.718614 230.772482a24.061449 24.061449 0 0 0 24.980229-0.144311l359.180383-221.156562a24.037397 24.037397 0 0 0 11.448671-20.482536V444.433099a24.056639 24.056639 0 1 0-48.118088 0z" fill="#6E6E96" p-id="1554"></path><path d="M650.30296 999.929315v-347.69804a24.051828 24.051828 0 1 0-48.103656 0v347.69804a24.051828 24.051828 0 1 0 48.103656 0z" fill="#6E6E96" p-id="1555"></path><path d="M898.099327 495.086249l292.701129-169.762614L627.160291 24.055244 46.948416 325.323635l580.211875 326.90764 172.807576-100.223969z" fill="#F0F0FF" p-id="1556"></path><path d="M910.168534 515.891081l292.70113-169.762615a24.047018 24.047018 0 1 0-0.731176-42.018544L638.503133 2.841531a24.061449 24.061449 0 0 0-22.425924-0.13469L35.865334 303.975232a24.051828 24.051828 0 1 0-0.726366 42.297545l580.211875 326.90283a24.07588 24.07588 0 0 0 23.873845-0.144311l172.807576-100.223969 98.13627-56.916246z m-122.269874 15.316204l-172.802766 100.219158a24.032587 24.032587 0 0 1 23.864224-0.149121L58.757864 304.369682a24.042208 24.042208 0 0 1-0.726365 42.297545L638.243374 45.403646a24.037397 24.037397 0 0 1-22.421115-0.13469l563.640166 301.268391a24.047018 24.047018 0 0 1-0.735986-42.018544l-292.70113 169.762615-98.126649 56.925867z" fill="#6E6E96" p-id="1557"></path><path d="M1097.532277 925.633217l60.12957 52.914023h-149.121335s-133.348147-4.810366-133.348147-114.097063v-365.698429l-279.020449-166.356876 105.491319-62.828186 286.92388 164.663627 1.70287 352.965391" fill="#FF7A7A" p-id="1558"></path><path d="M1141.77802 996.605352a24.051828 24.051828 0 1 1 15.888638-42.109941h-149.121336c0.298243 0 0.582054 0.00481 0.875487 0.014431-4.439968-0.177984-110.157374-5.5223-110.157374-90.059665v-365.698429a24.061449 24.061449 0 0 0-11.732482-20.65571l-279.015639-166.356876a24.042208 24.042208 0 0 1-0.009621 41.321041l105.486509-62.828186a24.061449 24.061449 0 0 1-24.277916 0.197225l286.928691 164.663627a24.051828 24.051828 0 0 1-12.088449-20.747107l1.70287 352.970201a24.624262 24.624262 0 0 1 0.177983-3.088255c-0.639779 5.12785-5.382799 51.04279 23.335084 83.541621m36.029639-31.849431c-14.532115-16.451451-11.679568-45.472387-11.641085-45.765819 0.12988-1.024608 0.187604-2.054026 0.187604-3.083444l-1.702869-352.965391a24.056639 24.056639 0 0 0-12.083639-20.747107L713.631424 248.69932a24.051828 24.051828 0 0 0-24.277915 0.197225l-105.486509 62.828186a24.047018 24.047018 0 0 0-0.009621 41.321041l279.01564 166.356876a24.042208 24.042208 0 0 1-11.727672-20.65571v365.698428c0 104.793816 102.383823 136.186262 156.524489 138.134461 0.298243 0.009621 0.577244 0.014431 0.875486 0.014431h149.121336a24.061449 24.061449 0 0 0 15.888638-42.109941m-51.971191-34.8511a24.042208 24.042208 0 0 1-8.163191 18.058113" fill="#6E6E96" p-id="1559"></path><path d="M265.584346 748.525174s-34.485511-257.099614 336.614958-82.75272L265.584346 476.118977v272.406197zM639.229499 673.036106s164.846421-62.635771 164.84642 0v189.153199l47.069428-28.972833v-283.090019l-211.915848 122.909653zM575.612413 344.800805l147.716708 147.721519-105.255611 57.156765-520.597013-223.489588 529.217189 302.013997 144.820868-87.500551 64.420417-37.36211z" fill="#6E6E96" opacity=".15" p-id="1560"></path></svg>